<svg version="1.1" xmlns="http://www.w3.org/2000/svg" xmlns:xlink="http://www.w3.org/1999/xlink" viewBox="0 0 172 172"><g fill="none" fill-rule="nonzero" stroke="none" stroke-width="1" stroke-linecap="butt" stroke-linejoin="miter" stroke-miterlimit="10" stroke-dasharray="" stroke-dashoffset="0" font-family="none" font-weight="none" font-size="none" text-anchor="none" style="mix-blend-mode: normal"><path d="M0,172v-172h172v172z" fill="none"></path><g fill="#5f5f5f"><path d="M35.83333,21.5v14.33333h14.33333v9.63021c0,9.49963 3.77137,18.61757 10.49805,25.33529l15.20118,15.20117l-15.20118,15.20117c-6.72667,6.71772 -10.49805,15.83565 -10.49805,25.33528v9.63021h-14.33333v14.33333h14.33333h14.33333h43h14.33333h14.33333v-14.33333h-14.33333v-9.63021c0,-9.49876 -3.7807,-18.61794 -10.49805,-25.33528l-15.20117,-15.20117l15.20117,-15.20117c6.72273,-6.72273 10.49805,-15.83565 10.49805,-25.33529v-9.63021h14.33333v-14.33333zM64.5,35.83333h43v9.63021c0,5.70803 -2.25723,11.15957 -6.29883,15.20117l-15.20117,15.20118l-15.20117,-15.21517c-4.03766,-4.03228 -6.29883,-9.47914 -6.29883,-15.18717zM86,96.13411l15.20117,15.20117c4.03265,4.03265 6.29883,9.5066 6.29883,15.20117v9.63021h-43v-9.63021c0,-5.70803 2.26117,-11.15489 6.29883,-15.18718z"></path></g></g></svg>